Courier Prime Source.ufo
<glyph name="four" format="1">
  <advance width="1228"/>
  <unicode hex="0034"/>
  <outline>
    <contour>
      <point x="699" y="1209"/>
      <point x="668" y="1189"/>
      <point x="641" y="1148" type="curve" smooth="yes"/>
      <point x="157" y="425" type="line" smooth="yes"/>
      <point x="150" y="415"/>
      <point x="145" y="397"/>
      <point x="145" y="376" type="curve" smooth="yes"/>
      <point x="145" y="326"/>
      <point x="165" y="302"/>
      <point x="210" y="302" type="curve"/>
      <point x="1000" y="302" type="line"/>
      <point x="1045" y="302"/>
      <point x="1063" y="322"/>
      <point x="1063" y="374" type="curve" smooth="yes"/>
      <point x="1063" y="426"/>
      <point x="1045" y="446"/>
      <point x="1000" y="446" type="curve"/>
      <point x="342" y="446" type="line"/>
      <point x="696" y="992" type="line"/>
      <point x="688" y="430" type="line"/>
      <point x="688" y="55" type="line" smooth="yes"/>
      <point x="688" y="9"/>
      <point x="706" y="-10"/>
      <point x="762" y="-10" type="curve" smooth="yes"/>
      <point x="764" y="-10" type="line" smooth="yes"/>
      <point x="820" y="-10"/>
      <point x="838" y="9"/>
      <point x="838" y="55" type="curve" smooth="yes"/>
      <point x="838" y="1131" type="line" smooth="yes"/>
      <point x="838" y="1178"/>
      <point x="813" y="1209"/>
      <point x="751" y="1209" type="curve" smooth="yes"/>
    </contour>
  </outline>
</glyph>
<glyph name="F" format="1">
  <advance width="1228"/>
  <unicode hex="0046"/>
  <outline>
    <contour>
      <point x="308" y="1187" type="line" smooth="yes"/>
      <point x="266" y="1187"/>
      <point x="245" y="1169"/>
      <point x="245" y="1119" type="curve" smooth="yes"/>
      <point x="245" y="55" type="line" smooth="yes"/>
      <point x="245" y="9"/>
      <point x="263" y="-10"/>
      <point x="319" y="-10" type="curve"/>
      <point x="321" y="-10" type="line"/>
      <point x="377" y="-10"/>
      <point x="395" y="9"/>
      <point x="395" y="55" type="curve" smooth="yes"/>
      <point x="395" y="1187" type="line"/>
    </contour>
    <contour>
      <point x="344" y="644" type="line"/>
      <point x="344" y="500" type="line"/>
      <point x="862" y="500" type="line" smooth="yes"/>
      <point x="907" y="500"/>
      <point x="925" y="520"/>
      <point x="925" y="572" type="curve" smooth="yes"/>
      <point x="925" y="624"/>
      <point x="907" y="644"/>
      <point x="862" y="644" type="curve" smooth="yes"/>
    </contour>
    <contour>
      <point x="344" y="1187" type="line"/>
      <point x="344" y="1043" type="line"/>
      <point x="977" y="1043" type="line" smooth="yes"/>
      <point x="1022" y="1043"/>
      <point x="1040" y="1063"/>
      <point x="1040" y="1115" type="curve" smooth="yes"/>
      <point x="1040" y="1167"/>
      <point x="1022" y="1187"/>
      <point x="977" y="1187" type="curve" smooth="yes"/>
    </contour>
  </outline>
</glyph>
<glyph name="K" format="1">
  <advance width="1228"/>
  <unicode hex="004B"/>
  <outline>
    <contour>
      <point x="240" y="451" type="line"/>
      <point x="355" y="355" type="line"/>
      <point x="1053" y="1094" type="line" smooth="yes"/>
      <point x="1085" y="1127"/>
      <point x="1083" y="1156"/>
      <point x="1036" y="1187" type="curve" smooth="yes"/>
      <point x="996" y="1213"/>
      <point x="959" y="1216"/>
      <point x="936" y="1191" type="curve" smooth="yes"/>
    </contour>
    <contour>
      <point x="289" y="1197" type="line"/>
      <point x="233" y="1197"/>
      <point x="215" y="1178"/>
      <point x="215" y="1132" type="curve" smooth="yes"/>
      <point x="215" y="55" type="line" smooth="yes"/>
      <point x="215" y="9"/>
      <point x="233" y="-10"/>
      <point x="289" y="-10" type="curve"/>
      <point x="291" y="-10" type="line"/>
      <point x="347" y="-10"/>
      <point x="365" y="9"/>
      <point x="365" y="55" type="curve" smooth="yes"/>
      <point x="365" y="1132" type="line" smooth="yes"/>
      <point x="365" y="1178"/>
      <point x="347" y="1197"/>
      <point x="291" y="1197" type="curve"/>
    </contour>
    <contour>
      <point x="487" y="618" type="line"/>
      <point x="953" y="6" type="line" smooth="yes"/>
      <point x="978" y="-27"/>
      <point x="1008" y="-25"/>
      <point x="1052" y="0" type="curve" smooth="yes"/>
      <point x="1101" y="28"/>
      <point x="1106" y="55"/>
      <point x="1078" y="92" type="curve" smooth="yes"/>
      <point x="618" y="695" type="line"/>
    </contour>
  </outline>
</glyph>
<glyph name="L" format="1">
  <advance width="1228"/>
  <unicode hex="004C"/>
  <outline>
    <contour>
      <point x="319" y="1197" type="line" smooth="yes"/>
      <point x="263" y="1197"/>
      <point x="245" y="1178"/>
      <point x="245" y="1132" type="curve" smooth="yes"/>
      <point x="245" y="68" type="line" smooth="yes"/>
      <point x="245" y="18"/>
      <point x="262" y="0"/>
      <point x="308" y="0" type="curve" smooth="yes"/>
      <point x="395" y="0" type="line"/>
      <point x="395" y="1132" type="line" smooth="yes"/>
      <point x="395" y="1178"/>
      <point x="377" y="1197"/>
      <point x="321" y="1197" type="curve" smooth="yes"/>
    </contour>
    <contour>
      <point x="349" y="144" type="line"/>
      <point x="349" y="0" type="line"/>
      <point x="977" y="0" type="line" smooth="yes"/>
      <point x="1022" y="0"/>
      <point x="1040" y="20"/>
      <point x="1040" y="72" type="curve" smooth="yes"/>
      <point x="1040" y="124"/>
      <point x="1022" y="144"/>
      <point x="977" y="144" type="curve" smooth="yes"/>
    </contour>
  </outline>
</glyph>
<glyph name="M" format="1">
  <advance width="1228"/>
  <unicode hex="004D"/>
  <outline>
    <contour>
      <point x="976" y="1197" type="line" smooth="yes"/>
      <point x="929" y="1197"/>
      <point x="900" y="1177"/>
      <point x="879" y="1132" type="curve" smooth="yes"/>
      <point x="614" y="562" type="line"/>
      <point x="349" y="1132" type="line" smooth="yes"/>
      <point x="328" y="1177"/>
      <point x="300" y="1197"/>
      <point x="253" y="1197" type="curve" smooth="yes"/>
      <point x="251" y="1197" type="line" smooth="yes"/>
      <point x="204" y="1197"/>
      <point x="176" y="1182"/>
      <point x="175" y="1132" type="curve" smooth="yes"/>
      <point x="145" y="55" type="line" smooth="yes"/>
      <point x="144" y="9"/>
      <point x="162" y="-10"/>
      <point x="218" y="-10" type="curve" smooth="yes"/>
      <point x="220" y="-10" type="line" smooth="yes"/>
      <point x="276" y="-10"/>
      <point x="293" y="9"/>
      <point x="294" y="55" type="curve" smooth="yes"/>
      <point x="315" y="868" type="line"/>
      <point x="522" y="422" type="line" smooth="yes"/>
      <point x="544" y="375"/>
      <point x="569" y="358"/>
      <point x="614" y="358" type="curve" smooth="yes"/>
      <point x="659" y="358"/>
      <point x="684" y="375"/>
      <point x="706" y="422" type="curve" smooth="yes"/>
      <point x="913" y="868" type="line"/>
      <point x="934" y="55" type="line" smooth="yes"/>
      <point x="935" y="9"/>
      <point x="952" y="-10"/>
      <point x="1008" y="-10" type="curve" smooth="yes"/>
      <point x="1010" y="-10" type="line" smooth="yes"/>
      <point x="1066" y="-10"/>
      <point x="1084" y="9"/>
      <point x="1083" y="55" type="curve" smooth="yes"/>
      <point x="1053" y="1132" type="line" smooth="yes"/>
      <point x="1052" y="1182"/>
      <point x="1025" y="1197"/>
      <point x="978" y="1197" type="curve" smooth="yes"/>
    </contour>
  </outline>
</glyph>
<glyph name="P" format="1">
  <advance width="1228"/>
  <unicode hex="0050"/>
  <outline>
    <contour>
      <point x="338" y="1187" type="line"/>
      <point x="338" y="1043" type="line"/>
      <point x="619" y="1043" type="line" smooth="yes"/>
      <point x="816" y="1043"/>
      <point x="918" y="949"/>
      <point x="918" y="788" type="curve" smooth="yes"/>
      <point x="918" y="629"/>
      <point x="816" y="537"/>
      <point x="619" y="537" type="curve" smooth="yes"/>
      <point x="338" y="537" type="line"/>
      <point x="338" y="393" type="line"/>
      <point x="640" y="393" type="line" smooth="yes"/>
      <point x="920" y="393"/>
      <point x="1072" y="553"/>
      <point x="1072" y="788" type="curve" smooth="yes"/>
      <point x="1072" y="1024"/>
      <point x="920" y="1187"/>
      <point x="640" y="1187" type="curve" smooth="yes"/>
    </contour>
    <contour>
      <point x="298" y="1187" type="line" smooth="yes"/>
      <point x="253" y="1187"/>
      <point x="235" y="1169"/>
      <point x="235" y="1119" type="curve" smooth="yes"/>
      <point x="235" y="55" type="line" smooth="yes"/>
      <point x="235" y="9"/>
      <point x="253" y="-10"/>
      <point x="309" y="-10" type="curve" smooth="yes"/>
      <point x="311" y="-10" type="line" smooth="yes"/>
      <point x="367" y="-10"/>
      <point x="385" y="9"/>
      <point x="385" y="55" type="curve"/>
      <point x="385" y="1187" type="line"/>
    </contour>
  </outline>
</glyph>
<glyph name="U" format="1">
  <advance width="1228"/>
  <unicode hex="0055"/>
  <outline>
    <contour>
      <point x="977" y="1197" type="line" smooth="yes"/>
      <point x="921" y="1197"/>
      <point x="903" y="1178"/>
      <point x="903" y="1132" type="curve" smooth="yes"/>
      <point x="903" y="433" type="line" smooth="yes"/>
      <point x="903" y="225"/>
      <point x="796" y="126"/>
      <point x="614" y="126" type="curve" smooth="yes"/>
      <point x="432" y="126"/>
      <point x="325" y="225"/>
      <point x="325" y="433" type="curve" smooth="yes"/>
      <point x="325" y="1132" type="line" smooth="yes"/>
      <point x="325" y="1178"/>
      <point x="307" y="1197"/>
      <point x="251" y="1197" type="curve" smooth="yes"/>
      <point x="249" y="1197" type="line" smooth="yes"/>
      <point x="193" y="1197"/>
      <point x="175" y="1178"/>
      <point x="175" y="1132" type="curve" smooth="yes"/>
      <point x="175" y="413" type="line" smooth="yes"/>
      <point x="175" y="128"/>
      <point x="354" y="-22"/>
      <point x="614" y="-22" type="curve" smooth="yes"/>
      <point x="874" y="-22"/>
      <point x="1053" y="128"/>
      <point x="1053" y="413" type="curve" smooth="yes"/>
      <point x="1053" y="1132" type="line" smooth="yes"/>
      <point x="1053" y="1178"/>
      <point x="1035" y="1197"/>
      <point x="979" y="1197" type="curve" smooth="yes"/>
    </contour>
  </outline>
</glyph>
<glyph name="b" format="1">
  <advance width="1228"/>
  <unicode hex="0062"/>
  <outline>
    <contour>
      <point x="266" y="1322" type="line" smooth="yes"/>
      <point x="210" y="1322"/>
      <point x="192" y="1303"/>
      <point x="192" y="1257" type="curve" smooth="yes"/>
      <point x="192" y="55" type="line" smooth="yes"/>
      <point x="192" y="9"/>
      <point x="208" y="-10"/>
      <point x="261" y="-10" type="curve" smooth="yes"/>
      <point x="263" y="-10" type="line" smooth="yes"/>
      <point x="316" y="-10"/>
      <point x="332" y="9"/>
      <point x="332" y="55" type="curve" smooth="yes"/>
      <point x="332" y="148" type="line"/>
      <point x="414" y="41"/>
      <point x="526" y="-22"/>
      <point x="659" y="-22" type="curve" smooth="yes"/>
      <point x="906" y="-22"/>
      <point x="1089" y="160"/>
      <point x="1089" y="462" type="curve" smooth="yes"/>
      <point x="1089" y="764"/>
      <point x="906" y="946"/>
      <point x="659" y="946" type="curve" smooth="yes"/>
      <point x="526" y="946"/>
      <point x="422" y="883"/>
      <point x="342" y="781" type="curve"/>
      <point x="342" y="1257" type="line" smooth="yes"/>
      <point x="342" y="1303"/>
      <point x="324" y="1322"/>
      <point x="268" y="1322" type="curve" smooth="yes"/>
    </contour>
    <contour>
      <point x="830" y="798"/>
      <point x="935" y="658"/>
      <point x="935" y="462" type="curve" smooth="yes"/>
      <point x="935" y="266"/>
      <point x="830" y="126"/>
      <point x="649" y="126" type="curve" smooth="yes"/>
      <point x="472" y="126"/>
      <point x="342" y="250"/>
      <point x="342" y="462" type="curve" smooth="yes"/>
      <point x="342" y="674"/>
      <point x="472" y="798"/>
      <point x="649" y="798" type="curve" smooth="yes"/>
    </contour>
  </outline>
</glyph>
<glyph name="f" format="1">
  <advance width="1228"/>
  <unicode hex="0066"/>
  <outline>
    <contour>
      <point x="576" y="1317"/>
      <point x="448" y="1186"/>
      <point x="448" y="967" type="curve" smooth="yes"/>
      <point x="448" y="55" type="line" smooth="yes"/>
      <point x="448" y="9"/>
      <point x="466" y="-10"/>
      <point x="522" y="-10" type="curve" smooth="yes"/>
      <point x="524" y="-10" type="line" smooth="yes"/>
      <point x="580" y="-10"/>
      <point x="598" y="9"/>
      <point x="598" y="55" type="curve" smooth="yes"/>
      <point x="598" y="954" type="line" smooth="yes"/>
      <point x="598" y="1091"/>
      <point x="659" y="1171"/>
      <point x="800" y="1171" type="curve" smooth="yes"/>
      <point x="879" y="1171"/>
      <point x="959" y="1152"/>
      <point x="1037" y="1122" type="curve" smooth="yes"/>
      <point x="1073" y="1108"/>
      <point x="1100" y="1126"/>
      <point x="1111" y="1173" type="curve" smooth="yes"/>
      <point x="1122" y="1219"/>
      <point x="1108" y="1250"/>
      <point x="1066" y="1266" type="curve" smooth="yes"/>
      <point x="986" y="1297"/>
      <point x="894" y="1317"/>
      <point x="800" y="1317" type="curve" smooth="yes"/>
    </contour>
    <contour>
      <point x="250" y="844" type="line" smooth="yes"/>
      <point x="205" y="844"/>
      <point x="187" y="824"/>
      <point x="187" y="772" type="curve" smooth="yes"/>
      <point x="187" y="720"/>
      <point x="205" y="700"/>
      <point x="250" y="700" type="curve" smooth="yes"/>
      <point x="944" y="700" type="line" smooth="yes"/>
      <point x="989" y="700"/>
      <point x="1007" y="720"/>
      <point x="1007" y="772" type="curve" smooth="yes"/>
      <point x="1007" y="824"/>
      <point x="989" y="844"/>
      <point x="944" y="844" type="curve" smooth="yes"/>
    </contour>
  </outline>
</glyph>
<glyph name="h" format="1">
  <advance width="1228"/>
  <unicode hex="0068"/>
  <outline>
    <contour>
      <point x="276" y="1322" type="line" smooth="yes"/>
      <point x="220" y="1322"/>
      <point x="202" y="1303"/>
      <point x="202" y="1257" type="curve" smooth="yes"/>
      <point x="202" y="55" type="line" smooth="yes"/>
      <point x="202" y="9"/>
      <point x="220" y="-10"/>
      <point x="276" y="-10" type="curve" smooth="yes"/>
      <point x="278" y="-10" type="line" smooth="yes"/>
      <point x="334" y="-10"/>
      <point x="352" y="9"/>
      <point x="352" y="55" type="curve" smooth="yes"/>
      <point x="352" y="392" type="line" smooth="yes"/>
      <point x="352" y="620"/>
      <point x="541" y="798"/>
      <point x="712" y="798" type="curve" smooth="yes"/>
      <point x="841" y="798"/>
      <point x="894" y="720"/>
      <point x="894" y="605" type="curve" smooth="yes"/>
      <point x="894" y="55" type="line" smooth="yes"/>
      <point x="894" y="9"/>
      <point x="912" y="-10"/>
      <point x="968" y="-10" type="curve" smooth="yes"/>
      <point x="970" y="-10" type="line" smooth="yes"/>
      <point x="1026" y="-10"/>
      <point x="1044" y="9"/>
      <point x="1044" y="55" type="curve" smooth="yes"/>
      <point x="1044" y="620" type="line" smooth="yes"/>
      <point x="1044" y="820"/>
      <point x="931" y="946"/>
      <point x="727" y="946" type="curve" smooth="yes"/>
      <point x="592" y="946"/>
      <point x="444" y="855"/>
      <point x="352" y="720" type="curve"/>
      <point x="352" y="1257" type="line" smooth="yes"/>
      <point x="352" y="1303"/>
      <point x="334" y="1322"/>
      <point x="278" y="1322" type="curve" smooth="yes"/>
    </contour>
  </outline>
</glyph>
<glyph name="n" format="1">
  <advance width="1228"/>
  <unicode hex="006E"/>
  <outline>
    <contour>
      <point x="581" y="946"/>
      <point x="430" y="842"/>
      <point x="342" y="706" type="curve"/>
      <point x="342" y="869" type="line" smooth="yes"/>
      <point x="342" y="915"/>
      <point x="326" y="934"/>
      <point x="273" y="934" type="curve" smooth="yes"/>
      <point x="271" y="934" type="line" smooth="yes"/>
      <point x="218" y="934"/>
      <point x="202" y="915"/>
      <point x="202" y="869" type="curve" smooth="yes"/>
      <point x="202" y="55" type="line" smooth="yes"/>
      <point x="202" y="9"/>
      <point x="220" y="-10"/>
      <point x="276" y="-10" type="curve" smooth="yes"/>
      <point x="278" y="-10" type="line" smooth="yes"/>
      <point x="334" y="-10"/>
      <point x="352" y="9"/>
      <point x="352" y="55" type="curve" smooth="yes"/>
      <point x="352" y="392" type="line" smooth="yes"/>
      <point x="352" y="620"/>
      <point x="541" y="798"/>
      <point x="712" y="798" type="curve" smooth="yes"/>
      <point x="841" y="798"/>
      <point x="894" y="720"/>
      <point x="894" y="605" type="curve" smooth="yes"/>
      <point x="894" y="55" type="line" smooth="yes"/>
      <point x="894" y="9"/>
      <point x="912" y="-10"/>
      <point x="968" y="-10" type="curve" smooth="yes"/>
      <point x="970" y="-10" type="line" smooth="yes"/>
      <point x="1026" y="-10"/>
      <point x="1044" y="9"/>
      <point x="1044" y="55" type="curve" smooth="yes"/>
      <point x="1044" y="620" type="line" smooth="yes"/>
      <point x="1044" y="820"/>
      <point x="931" y="946"/>
      <point x="727" y="946" type="curve" smooth="yes"/>
    </contour>
  </outline>
</glyph>
<glyph name="v" format="1">
  <advance width="1228"/>
  <unicode hex="0076"/>
  <outline>
    <contour>
      <point x="999" y="946"/>
      <point x="974" y="938"/>
      <point x="954" y="894" type="curve" smooth="yes"/>
      <point x="614" y="143" type="line"/>
      <point x="274" y="894" type="line" smooth="yes"/>
      <point x="254" y="938"/>
      <point x="229" y="946"/>
      <point x="177" y="924" type="curve" smooth="yes"/>
      <point x="125" y="902"/>
      <point x="113" y="877"/>
      <point x="133" y="833" type="curve" smooth="yes"/>
      <point x="496" y="40" type="line" smooth="yes"/>
      <point x="516" y="-3"/>
      <point x="548" y="-22"/>
      <point x="614" y="-22" type="curve"/>
      <point x="680" y="-22"/>
      <point x="712" y="-3"/>
      <point x="732" y="40" type="curve" smooth="yes"/>
      <point x="1095" y="833" type="line" smooth="yes"/>
      <point x="1115" y="877"/>
      <point x="1103" y="902"/>
      <point x="1051" y="924" type="curve" smooth="yes"/>
    </contour>
  </outline>
</glyph>
<glyph name="w" format="1">
  <advance width="1228"/>
  <unicode hex="0077"/>
  <outline>
    <contour>
      <point x="1055" y="941"/>
      <point x="1034" y="930"/>
      <point x="1023" y="883" type="curve" smooth="yes"/>
      <point x="864" y="210" type="line"/>
      <point x="689" y="743" type="line" smooth="yes"/>
      <point x="680" y="769"/>
      <point x="658" y="790"/>
      <point x="614" y="790" type="curve" smooth="yes"/>
      <point x="570" y="790"/>
      <point x="548" y="769"/>
      <point x="539" y="743" type="curve" smooth="yes"/>
      <point x="364" y="210" type="line"/>
      <point x="205" y="883" type="line" smooth="yes"/>
      <point x="194" y="930"/>
      <point x="173" y="941"/>
      <point x="118" y="930" type="curve" smooth="yes"/>
      <point x="62" y="919"/>
      <point x="50" y="896"/>
      <point x="62" y="849" type="curve" smooth="yes"/>
      <point x="261" y="43" type="line" smooth="yes"/>
      <point x="273" y="-4"/>
      <point x="292" y="-22"/>
      <point x="343" y="-22" type="curve" smooth="yes"/>
      <point x="400" y="-22"/>
      <point x="430" y="-3"/>
      <point x="445" y="43" type="curve" smooth="yes"/>
      <point x="614" y="555" type="line"/>
      <point x="783" y="43" type="line" smooth="yes"/>
      <point x="798" y="-3"/>
      <point x="828" y="-22"/>
      <point x="885" y="-22" type="curve" smooth="yes"/>
      <point x="936" y="-22"/>
      <point x="955" y="-4"/>
      <point x="967" y="43" type="curve" smooth="yes"/>
      <point x="1166" y="849" type="line" smooth="yes"/>
      <point x="1178" y="896"/>
      <point x="1166" y="919"/>
      <point x="1110" y="930" type="curve" smooth="yes"/>
    </contour>
  </outline>
</glyph>
<glyph name="z" format="1">
  <advance width="1228"/>
  <unicode hex="007A"/>
  <outline>
    <contour>
      <point x="803" y="924" type="line"/>
      <point x="803" y="788" type="line"/>
      <point x="192" y="113" type="line" smooth="yes"/>
      <point x="182" y="102"/>
      <point x="178" y="87"/>
      <point x="178" y="68" type="curve" smooth="yes"/>
      <point x="178" y="18"/>
      <point x="196" y="0"/>
      <point x="241" y="0" type="curve" smooth="yes"/>
      <point x="415" y="0" type="line"/>
      <point x="415" y="136" type="line"/>
      <point x="1025" y="810" type="line" smooth="yes"/>
      <point x="1034" y="820"/>
      <point x="1040" y="835"/>
      <point x="1040" y="856" type="curve" smooth="yes"/>
      <point x="1040" y="906"/>
      <point x="1022" y="924"/>
      <point x="977" y="924" type="curve" smooth="yes"/>
    </contour>
    <contour>
      <point x="331" y="144" type="line"/>
      <point x="331" y="0" type="line"/>
      <point x="987" y="0" type="line" smooth="yes"/>
      <point x="1032" y="0"/>
      <point x="1050" y="20"/>
      <point x="1050" y="72" type="curve" smooth="yes"/>
      <point x="1050" y="124"/>
      <point x="1032" y="144"/>
      <point x="987" y="144" type="curve" smooth="yes"/>
    </contour>
    <contour>
      <point x="261" y="924" type="line" smooth="yes"/>
      <point x="216" y="924"/>
      <point x="198" y="904"/>
      <point x="198" y="852" type="curve" smooth="yes"/>
      <point x="198" y="800"/>
      <point x="216" y="780"/>
      <point x="261" y="780" type="curve" smooth="yes"/>
      <point x="889" y="780" type="line"/>
      <point x="889" y="924" type="line"/>
    </contour>
  </outline>
</glyph>
<glyph name="sterling" format="1">
  <advance width="1228"/>
  <unicode hex="00A3"/>
  <outline>
    <contour>
      <point x="423" y="1209"/>
      <point x="290" y="1069"/>
      <point x="290" y="884" type="curve" smooth="yes"/>
      <point x="290" y="712"/>
      <point x="429" y="602"/>
      <point x="429" y="445" type="curve" smooth="yes"/>
      <point x="429" y="341"/>
      <point x="390" y="254"/>
      <point x="273" y="138" type="curve" smooth="yes"/>
      <point x="259" y="124"/>
      <point x="254" y="112"/>
      <point x="254" y="95" type="curve" smooth="yes"/>
      <point x="254" y="53"/>
      <point x="277" y="0"/>
      <point x="308" y="0" type="curve" smooth="yes"/>
      <point x="915" y="0" type="line" smooth="yes"/>
      <point x="960" y="0"/>
      <point x="978" y="20"/>
      <point x="978" y="72" type="curve" smooth="yes"/>
      <point x="978" y="124"/>
      <point x="960" y="144"/>
      <point x="915" y="144" type="curve" smooth="yes"/>
      <point x="456" y="144" type="line"/>
      <point x="537" y="236"/>
      <point x="581" y="336"/>
      <point x="581" y="446" type="curve" smooth="yes"/>
      <point x="581" y="648"/>
      <point x="444" y="745"/>
      <point x="444" y="884" type="curve" smooth="yes"/>
      <point x="444" y="982"/>
      <point x="513" y="1061"/>
      <point x="627" y="1061" type="curve" smooth="yes"/>
      <point x="711" y="1061"/>
      <point x="788" y="1035"/>
      <point x="856" y="990" type="curve" smooth="yes"/>
      <point x="885" y="971"/>
      <point x="916" y="971"/>
      <point x="943" y="1021" type="curve" smooth="yes"/>
      <point x="971" y="1072"/>
      <point x="960" y="1100"/>
      <point x="925" y="1122" type="curve" smooth="yes"/>
      <point x="839" y="1176"/>
      <point x="739" y="1209"/>
      <point x="628" y="1209" type="curve" smooth="yes"/>
    </contour>
    <contour>
      <point x="283" y="648" type="line" smooth="yes"/>
      <point x="238" y="648"/>
      <point x="220" y="628"/>
      <point x="220" y="576" type="curve" smooth="yes"/>
      <point x="220" y="524"/>
      <point x="238" y="504"/>
      <point x="283" y="504" type="curve" smooth="yes"/>
      <point x="815" y="504" type="line" smooth="yes"/>
      <point x="860" y="504"/>
      <point x="878" y="524"/>
      <point x="878" y="576" type="curve" smooth="yes"/>
      <point x="878" y="628"/>
      <point x="860" y="648"/>
      <point x="815" y="648" type="curve" smooth="yes"/>
    </contour>
  </outline>
</glyph>
<glyph name="logicalnot" format="1">
  <advance width="1228"/>
  <unicode hex="00AC"/>
  <outline>
    <contour>
      <point x="203" y="849" type="line" smooth="yes"/>
      <point x="158" y="849"/>
      <point x="140" y="829"/>
      <point x="140" y="777" type="curve" smooth="yes"/>
      <point x="140" y="725"/>
      <point x="158" y="705"/>
      <point x="203" y="705" type="curve" smooth="yes"/>
      <point x="928" y="705" type="line"/>
      <point x="928" y="383" type="line" smooth="yes"/>
      <point x="928" y="337"/>
      <point x="947" y="318"/>
      <point x="1003" y="318" type="curve" smooth="yes"/>
      <point x="1059" y="318"/>
      <point x="1078" y="337"/>
      <point x="1078" y="383" type="curve" smooth="yes"/>
      <point x="1078" y="781" type="line" smooth="yes"/>
      <point x="1078" y="831"/>
      <point x="1060" y="849"/>
      <point x="1015" y="849" type="curve" smooth="yes"/>
    </contour>
  </outline>
</glyph>
<glyph name="onequarter" format="1">
  <advance width="1228"/>
  <unicode hex="00BC"/>
  <outline>
    <contour>
      <point x="998" y="495"/>
      <point x="980" y="482"/>
      <point x="961" y="458" type="curve" smooth="yes"/>
      <point x="644" y="81" type="line"/>
      <point x="634" y="67"/>
      <point x="630" y="56"/>
      <point x="630" y="36" type="curve" smooth="yes"/>
      <point x="630" y="-9"/>
      <point x="649" y="-29"/>
      <point x="675" y="-29" type="curve" smooth="yes"/>
      <point x="1193" y="-29" type="line" smooth="yes"/>
      <point x="1219" y="-29"/>
      <point x="1233" y="-14"/>
      <point x="1233" y="24" type="curve" smooth="yes"/>
      <point x="1233" y="62"/>
      <point x="1219" y="76"/>
      <point x="1193" y="76" type="curve" smooth="yes"/>
      <point x="773" y="76" type="line"/>
      <point x="994" y="342" type="line"/>
      <point x="989" y="76" type="line"/>
      <point x="989" y="-182" type="line" smooth="yes"/>
      <point x="989" y="-208"/>
      <point x="1005" y="-222"/>
      <point x="1046" y="-222" type="curve" smooth="yes"/>
      <point x="1088" y="-222"/>
      <point x="1102" y="-208"/>
      <point x="1102" y="-182" type="curve" smooth="yes"/>
      <point x="1102" y="448" type="line" smooth="yes"/>
      <point x="1102" y="476"/>
      <point x="1065" y="495"/>
      <point x="1028" y="495" type="curve" smooth="yes"/>
    </contour>
    <contour>
      <point x="125" y="279" type="line" smooth="yes"/>
      <point x="106" y="267"/>
      <point x="106" y="240"/>
      <point x="125" y="214" type="curve" smooth="yes"/>
      <point x="144" y="188"/>
      <point x="168" y="180"/>
      <point x="185" y="190" type="curve" smooth="yes"/>
      <point x="1103" y="751" type="line" smooth="yes"/>
      <point x="1122" y="763"/>
      <point x="1122" y="790"/>
      <point x="1103" y="816" type="curve" smooth="yes"/>
      <point x="1084" y="842"/>
      <point x="1060" y="850"/>
      <point x="1043" y="840" type="curve" smooth="yes"/>
    </contour>
    <contour>
      <point x="213" y="788" type="line"/>
      <point x="43" y="788" type="line" smooth="yes"/>
      <point x="16" y="788"/>
      <point x="1" y="774"/>
      <point x="1" y="736" type="curve" smooth="yes"/>
      <point x="1" y="699"/>
      <point x="16" y="684"/>
      <point x="43" y="684" type="curve" smooth="yes"/>
      <point x="488" y="684" type="line" smooth="yes"/>
      <point x="515" y="684"/>
      <point x="529" y="699"/>
      <point x="529" y="736" type="curve" smooth="yes"/>
      <point x="529" y="774"/>
      <point x="515" y="788"/>
      <point x="488" y="788" type="curve" smooth="yes"/>
      <point x="326" y="788" type="line"/>
      <point x="326" y="1359" type="line" smooth="yes"/>
      <point x="326" y="1390"/>
      <point x="299" y="1399"/>
      <point x="271" y="1390" type="curve" smooth="yes"/>
      <point x="34" y="1314" type="line" smooth="yes"/>
      <point x="3" y="1304"/>
      <point x="-1" y="1283"/>
      <point x="9" y="1251" type="curve" smooth="yes"/>
      <point x="21" y="1218"/>
      <point x="39" y="1207"/>
      <point x="68" y="1217" type="curve" smooth="yes"/>
      <point x="213" y="1264" type="line"/>
    </contour>
  </outline>
</glyph>
<glyph name="Oslash" format="1">
  <advance width="1228"/>
  <unicode hex="00D8"/>
  <outline>
    <contour>
      <point x="1031" y="1280"/>
      <point x="1002" y="1277"/>
      <point x="976" y="1239" type="curve" smooth="yes"/>
      <point x="137" y="30" type="line" smooth="yes"/>
      <point x="111" y="-8"/>
      <point x="117" y="-35"/>
      <point x="158" y="-63" type="curve" smooth="yes"/>
      <point x="198" y="-91"/>
      <point x="226" y="-88"/>
      <point x="252" y="-50" type="curve" smooth="yes"/>
      <point x="1091" y="1159" type="line" smooth="yes"/>
      <point x="1116" y="1196"/>
      <point x="1111" y="1224"/>
      <point x="1071" y="1252" type="curve" smooth="yes"/>
    </contour>
    <component base="O"/>
  </outline>
</glyph>
<glyph name="germandbls" format="1">
  <advance width="1228"/>
  <unicode hex="00DF"/>
  <outline>
    <contour>
      <point x="373" y="1317"/>
      <point x="235" y="1162"/>
      <point x="235" y="943" type="curve" smooth="yes"/>
      <point x="235" y="55" type="line" smooth="yes"/>
      <point x="235" y="9"/>
      <point x="253" y="-10"/>
      <point x="309" y="-10" type="curve" smooth="yes"/>
      <point x="311" y="-10" type="line" smooth="yes"/>
      <point x="367" y="-10"/>
      <point x="385" y="9"/>
      <point x="385" y="55" type="curve" smooth="yes"/>
      <point x="385" y="932" type="line" smooth="yes"/>
      <point x="385" y="1078"/>
      <point x="464" y="1169"/>
      <point x="602" y="1169" type="curve" smooth="yes"/>
      <point x="749" y="1169"/>
      <point x="828" y="1094"/>
      <point x="828" y="971" type="curve" smooth="yes"/>
      <point x="828" y="854"/>
      <point x="760" y="772"/>
      <point x="627" y="759" type="curve" smooth="yes"/>
      <point x="582" y="755"/>
      <point x="564" y="736"/>
      <point x="564" y="688" type="curve" smooth="yes"/>
      <point x="564" y="640"/>
      <point x="582" y="619"/>
      <point x="627" y="619" type="curve" smooth="yes"/>
      <point x="782" y="619"/>
      <point x="883" y="527"/>
      <point x="883" y="362" type="curve" smooth="yes"/>
      <point x="883" y="209"/>
      <point x="781" y="126"/>
      <point x="615" y="126" type="curve" smooth="yes"/>
      <point x="569" y="126"/>
      <point x="551" y="104"/>
      <point x="551" y="55" type="curve" smooth="yes"/>
      <point x="551" y="-2"/>
      <point x="566" y="-22"/>
      <point x="634" y="-22" type="curve" smooth="yes"/>
      <point x="876" y="-22"/>
      <point x="1037" y="120"/>
      <point x="1037" y="360" type="curve" smooth="yes"/>
      <point x="1037" y="525"/>
      <point x="952" y="648"/>
      <point x="810" y="702" type="curve"/>
      <point x="915" y="757"/>
      <point x="982" y="845"/>
      <point x="982" y="971" type="curve" smooth="yes"/>
      <point x="982" y="1164"/>
      <point x="856" y="1317"/>
      <point x="606" y="1317" type="curve" smooth="yes"/>
    </contour>
  </outline>
</glyph>
<glyph name="dcroat" format="1">
  <advance width="1228"/>
  <unicode hex="0111"/>
  <outline>
    <contour>
      <point x="940" y="1322" type="line" smooth="yes"/>
      <point x="884" y="1322"/>
      <point x="866" y="1303"/>
      <point x="866" y="1257" type="curve" smooth="yes"/>
      <point x="866" y="674" type="line"/>
      <point x="894" y="702" type="line"/>
      <point x="815" y="815"/>
      <point x="710" y="886"/>
      <point x="569" y="886" type="curve" smooth="yes"/>
      <point x="334" y="886"/>
      <point x="159" y="716"/>
      <point x="159" y="432" type="curve" smooth="yes"/>
      <point x="159" y="148"/>
      <point x="334" y="-22"/>
      <point x="569" y="-22" type="curve" smooth="yes"/>
      <point x="710" y="-22"/>
      <point x="824" y="53"/>
      <point x="904" y="178" type="curve"/>
      <point x="876" y="205" type="line"/>
      <point x="876" y="55" type="line" smooth="yes"/>
      <point x="876" y="9"/>
      <point x="892" y="-10"/>
      <point x="945" y="-10" type="curve" smooth="yes"/>
      <point x="947" y="-10" type="line" smooth="yes"/>
      <point x="1000" y="-10"/>
      <point x="1016" y="9"/>
      <point x="1016" y="55" type="curve" smooth="yes"/>
      <point x="1016" y="1257" type="line" smooth="yes"/>
      <point x="1016" y="1303"/>
      <point x="998" y="1322"/>
      <point x="942" y="1322" type="curve" smooth="yes"/>
    </contour>
    <contour>
      <point x="744" y="738"/>
      <point x="866" y="626"/>
      <point x="866" y="432" type="curve" smooth="yes"/>
      <point x="866" y="238"/>
      <point x="744" y="126"/>
      <point x="579" y="126" type="curve" smooth="yes"/>
      <point x="410" y="126"/>
      <point x="313" y="254"/>
      <point x="313" y="432" type="curve" smooth="yes"/>
      <point x="313" y="610"/>
      <point x="410" y="738"/>
      <point x="579" y="738" type="curve" smooth="yes"/>
    </contour>
    <contour>
      <point x="613" y="1150" type="line" smooth="yes"/>
      <point x="568" y="1150"/>
      <point x="550" y="1130"/>
      <point x="550" y="1078" type="curve" smooth="yes"/>
      <point x="550" y="1026"/>
      <point x="568" y="1006"/>
      <point x="613" y="1006" type="curve" smooth="yes"/>
      <point x="1155" y="1006" type="line" smooth="yes"/>
      <point x="1200" y="1006"/>
      <point x="1218" y="1026"/>
      <point x="1218" y="1078" type="curve" smooth="yes"/>
      <point x="1218" y="1130"/>
      <point x="1200" y="1150"/>
      <point x="1155" y="1150" type="curve" smooth="yes"/>
    </contour>
  </outline>
</glyph>
<glyph name="OE" format="1">
  <advance width="1228"/>
  <unicode hex="0152"/>
  <outline>
    <contour>
      <point x="291" y="1195"/>
      <point x="84" y="970"/>
      <point x="84" y="593" type="curve" smooth="yes"/>
      <point x="84" y="216"/>
      <point x="291" y="-8"/>
      <point x="611" y="0" type="curve"/>
      <point x="602" y="136" type="line"/>
      <point x="384" y="136"/>
      <point x="238" y="295"/>
      <point x="238" y="593" type="curve" smooth="yes"/>
      <point x="238" y="891"/>
      <point x="384" y="1051"/>
      <point x="602" y="1050" type="curve"/>
      <point x="611" y="1187" type="line"/>
    </contour>
    <contour>
      <point x="680" y="144" type="line"/>
      <point x="680" y="0" type="line"/>
      <point x="1078" y="0" type="line" smooth="yes"/>
      <point x="1123" y="0"/>
      <point x="1141" y="20"/>
      <point x="1141" y="72" type="curve" smooth="yes"/>
      <point x="1141" y="124"/>
      <point x="1123" y="144"/>
      <point x="1078" y="144" type="curve" smooth="yes"/>
    </contour>
    <contour>
      <point x="611" y="1187" type="line"/>
      <point x="586" y="1158" type="line"/>
      <point x="586" y="24" type="line"/>
      <point x="611" y="0" type="line"/>
      <point x="736" y="0" type="line"/>
      <point x="736" y="1187" type="line"/>
    </contour>
    <contour>
      <point x="680" y="684" type="line"/>
      <point x="680" y="540" type="line"/>
      <point x="983" y="540" type="line" smooth="yes"/>
      <point x="1028" y="540"/>
      <point x="1046" y="560"/>
      <point x="1046" y="612" type="curve" smooth="yes"/>
      <point x="1046" y="664"/>
      <point x="1028" y="684"/>
      <point x="983" y="684" type="curve" smooth="yes"/>
    </contour>
    <contour>
      <point x="680" y="1187" type="line"/>
      <point x="680" y="1043" type="line"/>
      <point x="1058" y="1043" type="line" smooth="yes"/>
      <point x="1103" y="1043"/>
      <point x="1121" y="1063"/>
      <point x="1121" y="1115" type="curve" smooth="yes"/>
      <point x="1121" y="1167"/>
      <point x="1103" y="1187"/>
      <point x="1058" y="1187" type="curve" smooth="yes"/>
    </contour>
  </outline>
</glyph>
<glyph name="uogonek" format="1">
  <advance width="1228"/>
  <unicode hex="0173"/>
  <outline>
    <contour>
      <point x="950" y="934" type="line" smooth="yes"/>
      <point x="894" y="934"/>
      <point x="876" y="915"/>
      <point x="876" y="869" type="curve" smooth="yes"/>
      <point x="876" y="532" type="line" smooth="yes"/>
      <point x="876" y="304"/>
      <point x="687" y="126"/>
      <point x="516" y="126" type="curve" smooth="yes"/>
      <point x="387" y="126"/>
      <point x="334" y="204"/>
      <point x="334" y="319" type="curve" smooth="yes"/>
      <point x="334" y="869" type="line" smooth="yes"/>
      <point x="334" y="915"/>
      <point x="316" y="934"/>
      <point x="260" y="934" type="curve" smooth="yes"/>
      <point x="258" y="934" type="line" smooth="yes"/>
      <point x="202" y="934"/>
      <point x="184" y="915"/>
      <point x="184" y="869" type="curve" smooth="yes"/>
      <point x="184" y="304" type="line" smooth="yes"/>
      <point x="184" y="104"/>
      <point x="297" y="-22"/>
      <point x="501" y="-22" type="curve" smooth="yes"/>
      <point x="647" y="-22"/>
      <point x="798" y="82"/>
      <point x="886" y="218" type="curve"/>
      <point x="886" y="32" type="line"/>
      <point x="760" y="-69"/>
      <point x="683" y="-169"/>
      <point x="683" y="-281" type="curve" smooth="yes"/>
      <point x="683" y="-397"/>
      <point x="759" y="-472"/>
      <point x="883" y="-472" type="curve" smooth="yes"/>
      <point x="945" y="-472"/>
      <point x="1001" y="-462"/>
      <point x="1047" y="-446" type="curve" smooth="yes"/>
      <point x="1076" y="-436"/>
      <point x="1085" y="-415"/>
      <point x="1079" y="-374" type="curve" smooth="yes"/>
      <point x="1074" y="-337"/>
      <point x="1055" y="-322"/>
      <point x="1029" y="-326" type="curve" smooth="yes"/>
      <point x="994" y="-332"/>
      <point x="955" y="-336"/>
      <point x="916" y="-336" type="curve" smooth="yes"/>
      <point x="871" y="-336"/>
      <point x="839" y="-310"/>
      <point x="839" y="-261" type="curve" smooth="yes"/>
      <point x="839" y="-187"/>
      <point x="887" y="-109"/>
      <point x="1010" y="4" type="curve" smooth="yes"/>
      <point x="1022" y="15"/>
      <point x="1026" y="30"/>
      <point x="1026" y="55" type="curve" smooth="yes"/>
      <point x="1026" y="869" type="line" smooth="yes"/>
      <point x="1026" y="915"/>
      <point x="1008" y="934"/>
      <point x="952" y="934" type="curve" smooth="yes"/>
    </contour>
  </outline>
</glyph>
<glyph name="won" format="1">
  <advance width="1228"/>
  <unicode hex="20A9"/>
  <outline>
    <contour>
      <point x="33" y="754" type="line" smooth="yes"/>
      <point x="-12" y="754"/>
      <point x="-30" y="734"/>
      <point x="-30" y="682" type="curve" smooth="yes"/>
      <point x="-30" y="630"/>
      <point x="-12" y="610"/>
      <point x="33" y="610" type="curve" smooth="yes"/>
      <point x="523" y="610" type="line"/>
      <point x="609" y="691" type="line"/>
      <point x="703" y="610" type="line"/>
      <point x="1195" y="610" type="line" smooth="yes"/>
      <point x="1240" y="610"/>
      <point x="1258" y="630"/>
      <point x="1258" y="682" type="curve" smooth="yes"/>
      <point x="1258" y="734"/>
      <point x="1240" y="754"/>
      <point x="1195" y="754" type="curve" smooth="yes"/>
    </contour>
    <component base="W"/>
  </outline>
</glyph>
<glyph name="caron.case" format="1">
  <advance width="1228"/>
  <outline>
    <contour>
      <point x="614" y="1485" type="line"/>
      <point x="335" y="1644" type="line" smooth="yes"/>
      <point x="312" y="1657"/>
      <point x="289" y="1644"/>
      <point x="276" y="1623" type="curve" smooth="yes"/>
      <point x="263" y="1602"/>
      <point x="261" y="1575"/>
      <point x="282" y="1557" type="curve" smooth="yes"/>
      <point x="559" y="1325" type="line" smooth="yes"/>
      <point x="574" y="1313"/>
      <point x="593" y="1307"/>
      <point x="614" y="1307" type="curve" smooth="yes"/>
      <point x="635" y="1307"/>
      <point x="654" y="1313"/>
      <point x="669" y="1325" type="curve" smooth="yes"/>
      <point x="946" y="1557" type="line" smooth="yes"/>
      <point x="967" y="1575"/>
      <point x="965" y="1602"/>
      <point x="952" y="1623" type="curve" smooth="yes"/>
      <point x="939" y="1644"/>
      <point x="916" y="1657"/>
      <point x="893" y="1644" type="curve" smooth="yes"/>
    </contour>
    <contour>
      <point x="614" y="1187" type="move" name="_top"/>
    </contour>
  </outline>
</glyph>
<glyph name="emdash.alt1" format="1">
  <advance width="1228"/>
  <outline>
    <contour>
      <point x="-367" y="654" type="line" smooth="yes"/>
      <point x="-412" y="654"/>
      <point x="-430" y="634"/>
      <point x="-430" y="582" type="curve" smooth="yes"/>
      <point x="-430" y="530"/>
      <point x="-412" y="510"/>
      <point x="-367" y="510" type="curve" smooth="yes"/>
      <point x="1595" y="510" type="line" smooth="yes"/>
      <point x="1640" y="510"/>
      <point x="1658" y="530"/>
      <point x="1658" y="582" type="curve" smooth="yes"/>
      <point x="1658" y="634"/>
      <point x="1640" y="654"/>
      <point x="1595" y="654" type="curve" smooth="yes"/>
    </contour>
  </outline>
</glyph>
<glyph name="macron.case" format="1">
  <advance width="1228"/>
  <outline>
    <contour>
      <point x="333" y="1520" type="line" smooth="yes"/>
      <point x="288" y="1520"/>
      <point x="270" y="1500"/>
      <point x="270" y="1448" type="curve" smooth="yes"/>
      <point x="270" y="1396"/>
      <point x="288" y="1376"/>
      <point x="333" y="1376" type="curve" smooth="yes"/>
      <point x="895" y="1376" type="line" smooth="yes"/>
      <point x="940" y="1376"/>
      <point x="958" y="1396"/>
      <point x="958" y="1448" type="curve" smooth="yes"/>
      <point x="958" y="1500"/>
      <point x="940" y="1520"/>
      <point x="895" y="1520" type="curve" smooth="yes"/>
    </contour>
    <contour>
      <point x="614" y="1187" type="move" name="_top"/>
    </contour>
  </outline>
</glyph>
